<?xml version="1.0" encoding="UTF-8"?>
<svg width="318" height="318" viewBox="0 0 318 318" fill="none" xmlns="http://www.w3.org/2000/svg">
  <path d="M274.1 35.5L174.6 109.4L193 51.8L274.1 35.5Z" fill="#E17726" stroke="#E17726" stroke-width="4" stroke-linecap="round" stroke-linejoin="round"/>
  <path d="M44.4 35.5L143.2 109.7L125.5 51.8L44.4 35.5Z" fill="#E27625" stroke="#E27625" stroke-width="4" stroke-linecap="round" stroke-linejoin="round"/>
  <path d="M238.3 206.5L212.2 224.6L256.6 241.6L267.2 206.7L238.3 206.5Z" fill="#E27625" stroke="#E27625" stroke-width="4" stroke-linecap="round" stroke-linejoin="round"/>
  <path d="M51.1 206.7L61.7 241.6L106.1 224.6L80 206.5L51.1 206.7Z" fill="#E27625" stroke="#E27625" stroke-width="4" stroke-linecap="round" stroke-linejoin="round"/>
  <path d="M106.1 224.6L80 206.5L106.1 206.7L106.1 224.6Z" fill="#E27625" stroke="#E27625" stroke-width="4" stroke-linecap="round" stroke-linejoin="round"/>
  <path d="M212.2 224.6L186.1 206.5L212.2 206.7L212.2 224.6Z" fill="#E27625" stroke="#E27625" stroke-width="4" stroke-linecap="round" stroke-linejoin="round"/>
  <path d="M106.1 224.6L80 206.5L106.1 206.7L106.1 224.6Z" fill="#E27625" stroke="#E27625" stroke-width="4" stroke-linecap="round" stroke-linejoin="round"/>
  <path d="M212.2 224.6L186.1 206.5L212.2 206.7L212.2 224.6Z" fill="#E27625" stroke="#E27625" stroke-width="4" stroke-linecap="round" stroke-linejoin="round"/>
  <path d="M267.2 206.7L256.6 241.6L267.2 206.7Z" fill="#E27625" stroke="#E27625" stroke-width="4" stroke-linecap="round" stroke-linejoin="round"/>
  <path d="M51.1 206.7L61.7 241.6L51.1 206.7Z" fill="#E27625" stroke="#E27625" stroke-width="4" stroke-linecap="round" stroke-linejoin="round"/>
  <path d="M267.2 206.7L256.6 241.6L267.2 206.7Z" fill="#E27625" stroke="#E27625" stroke-width="4" stroke-linecap="round" stroke-linejoin="round"/>
  <path d="M51.1 206.7L61.7 241.6L51.1 206.7Z" fill="#E27625" stroke="#E27625" stroke-width="4" stroke-linecap="round" stroke-linejoin="round"/>
</svg> 