<?xml version="1.0" encoding="UTF-8"?>
<svg width="300" height="185" viewBox="0 0 300 185" fill="none" xmlns="http://www.w3.org/2000/svg">
  <path d="M61.4 0C27.5 0 0 27.5 0 61.4C0 95.3 27.5 122.8 61.4 122.8C95.3 122.8 122.8 95.3 122.8 61.4C122.8 27.5 95.3 0 61.4 0ZM61.4 110.5C35.2 110.5 13.9 89.2 13.9 63C13.9 36.8 35.2 15.5 61.4 15.5C87.6 15.5 108.9 36.8 108.9 63C108.9 89.2 87.6 110.5 61.4 110.5Z" fill="#3B99FC"/>
  <path d="M238.6 0C204.7 0 177.2 27.5 177.2 61.4C177.2 95.3 204.7 122.8 238.6 122.8C272.5 122.8 300 95.3 300 61.4C300 27.5 272.5 0 238.6 0ZM238.6 110.5C212.4 110.5 191.1 89.2 191.1 63C191.1 36.8 212.4 15.5 238.6 15.5C264.8 15.5 286.1 36.8 286.1 63C286.1 89.2 264.8 110.5 238.6 110.5Z" fill="#3B99FC"/>
  <path d="M150 61.4C150 95.3 122.5 122.8 88.6 122.8C54.7 122.8 27.2 95.3 27.2 61.4C27.2 27.5 54.7 0 88.6 0C122.5 0 150 27.5 150 61.4Z" fill="#3B99FC"/>
  <path d="M272.8 61.4C272.8 95.3 245.3 122.8 211.4 122.8C177.5 122.8 150 95.3 150 61.4C150 27.5 177.5 0 211.4 0C245.3 0 272.8 27.5 272.8 61.4Z" fill="#3B99FC"/>
</svg> 